<?xml version="1.0" encoding="utf-8"?>
<!-- Generator: Adobe Illustrator 26.0.2, SVG Export Plug-In . SVG Version: 6.00 Build 0)  -->
<svg version="1.1" id="Layer_1" xmlns="http://www.w3.org/2000/svg" xmlns:xlink="http://www.w3.org/1999/xlink" x="0px" y="0px"
	 viewBox="0 0 181.9 40.7" style="enable-background:new 0 0 181.9 40.7;" xml:space="preserve">
<style type="text/css">
	.st0{fill:#FFFFFF;}
	.st1{fill:#B3502F;fill-opacity:0;}
	.st2{fill:#B3502F;}
</style>
<g transform="translate(0, 0)">
	<g transform="scale(1)">
		<path class="st0" d="M0,32.4V1.8h21.3v3.8H4.2V15h15.3v3.8H4.2v9.8h17.6v3.8H0z"/>
	</g>
</g>
<g transform="translate(25, 0)">
	<g transform="scale(1)">
		<path class="st0" d="M29.9,9.1c2.7,0,4.7,0.8,6.3,2.4c1.5,1.6,2.3,3.8,2.3,6.6l0,0v14.3h-4.1V19.2c0-2-0.5-3.5-1.6-4.6
			c-1.1-1.1-2.5-1.7-4.4-1.7l0,0c-2.2,0.1-3.9,0.8-5.2,2.3c-1.3,1.5-1.9,3.4-1.9,5.7l0,0v11.4h-4.1V19.2c0-2-0.5-3.5-1.6-4.6
			c-1.1-1.1-2.5-1.7-4.4-1.7l0,0C9,13,7.3,13.8,6,15.2c-1.3,1.5-1.9,3.4-1.9,5.7l0,0v11.4H0V9.2h4.1v4.9c1.5-3.3,4.4-4.9,8.6-5l0,0
			c2.1,0,3.9,0.5,5.3,1.5c1.4,1,2.4,2.5,2.9,4.3l0,0C22.3,11.1,25.3,9.2,29.9,9.1L29.9,9.1z"/>
	</g>
</g>
<g transform="translate(67, 0)">
	<g transform="scale(1)">
		<path class="st0" d="M20.2,32.4h-4v-3.2c-1.7,2.3-4.4,3.4-8.1,3.4l0,0c-1.6,0-3-0.3-4.2-0.9c-1.2-0.6-2.1-1.5-2.8-2.5
			c-0.7-1.1-1-2.3-1-3.6l0,0c0-2.1,0.8-3.7,2.3-4.9c1.5-1.2,3.7-1.8,6.4-1.9l0,0h7.4v-1.1c0-1.6-0.5-2.9-1.5-3.8
			c-1-0.9-2.5-1.3-4.4-1.3l0,0c-2.3,0-4.7,0.8-7.1,2.5l0,0l-1.7-2.8c1.7-1.1,3.2-1.9,4.6-2.3C7.4,9.4,9,9.1,11,9.1l0,0
			c2.9,0,5.1,0.7,6.7,2.1c1.6,1.4,2.4,3.4,2.4,5.9l0,0L20.2,32.4z M8.8,29.2c1.9,0,3.5-0.5,4.8-1.4c1.3-0.9,2.1-2.1,2.4-3.7l0,0
			v-2.3H9.3c-1.8,0-3.2,0.3-4.1,0.8c-0.9,0.6-1.3,1.4-1.3,2.6l0,0c0,1.2,0.5,2.1,1.4,2.9C6.1,28.9,7.3,29.2,8.8,29.2L8.8,29.2z"/>
	</g>
</g>
<g transform="translate(91, 0)">
	<g transform="scale(1)">
		<path class="st0" d="M13.8,27.7l1.1,3.2c-1.8,1.1-3.6,1.7-5.4,1.7l0,0c-1.8,0-3.3-0.6-4.5-1.7c-1.1-1.1-1.7-2.8-1.7-5l0,0V13.1H0
			V10h3.3V3.8h4.1V10h7.1v3.1H7.4v12.1c0,1.3,0.2,2.2,0.7,2.8c0.5,0.6,1.2,0.8,2.1,0.8l0,0C11.3,28.8,12.5,28.5,13.8,27.7L13.8,27.7
			z"/>
	</g>
</g>
<g transform="translate(109, 0)">
	<g transform="scale(1)">
		<path class="st0" d="M0.5,32.4V9.2h4.1v23.2H0.5z M2.5,0c0.7,0,1.3,0.2,1.8,0.7c0.5,0.5,0.7,1.1,0.7,1.9l0,0
			c0,0.8-0.2,1.4-0.7,1.9C3.9,5,3.3,5.3,2.5,5.3l0,0C1.8,5.3,1.2,5,0.7,4.5C0.2,4,0,3.4,0,2.6l0,0c0-0.8,0.2-1.4,0.7-1.9
			C1.2,0.2,1.8,0,2.5,0L2.5,0z"/>
	</g>
</g>
<g transform="translate(118, 0)">
	<g transform="scale(1)">
		<path class="st0" d="M18.5,15.4c-1.8-1.8-4-2.7-6.6-2.7l0,0c-1.5,0-2.9,0.3-4.1,1c-1.2,0.7-2.1,1.6-2.8,2.9s-1,2.6-1,4.2l0,0
			c0,1.6,0.3,3,1,4.2c0.7,1.2,1.6,2.2,2.7,2.9c1.2,0.7,2.5,1,4,1l0,0c1.5,0,2.8-0.2,4-0.7c1.2-0.5,2.2-1.2,3-2.1l0,0l2.3,2.4
			c-1.1,1.3-2.4,2.3-4,3c-1.6,0.7-3.5,1-5.5,1l0,0c-2.2,0-4.2-0.5-6-1.5c-1.8-1-3.1-2.4-4.1-4.1c-1-1.8-1.5-3.8-1.5-6.1l0,0
			c0-2.3,0.5-4.3,1.5-6.1c1-1.8,2.3-3.2,4.1-4.2c1.8-1,3.8-1.5,6-1.5l0,0c2,0,3.7,0.3,5.3,0.9c1.6,0.6,2.9,1.5,3.9,2.6l0,0
			L18.5,15.4z"/>
	</g>
</g>
<g transform="translate(143, 1.8459479192017518)">
	<g>
		<g>
			<g>
				<rect y="0" class="st1" width="38.9" height="38.9"/>
				<g>
					<path class="st2" d="M36,2.9C30.4-2.7,18.7,0.1,9.4,9.4c-4.1,3.9-7.1,8.9-8.7,14.3c-1.4,5.1-0.6,9.5,2.2,12.3
						c2.1,2,4.9,3,7.7,2.9c5.8,0,12.9-3.3,18.9-9.4c4.1-3.9,7.1-8.9,8.7-14.3C39.6,10.1,38.9,5.7,36,2.9z M23.6,23.6
						c-5.1,5.1-10.2,6.9-13.1,6.9c-0.4,0-0.7,0-1.1-0.1c-0.7-0.2-1.2-0.9-1.1-1.7c0.2-0.7,0.9-1.2,1.7-1c0.2,0,0.3,0,0.5,0
						c2.4,0,6.9-1.9,11.1-6.1c5.5-5.4,6.4-10.5,6.1-11.5c-0.2-0.7,0.2-1.5,0.9-1.7c0.7-0.2,1.5,0.2,1.7,0.9c0,0,0,0.1,0,0.1
						C31.1,11.8,29.4,17.9,23.6,23.6z"/>
				</g>
			</g>
		</g>
	</g>
</g>
</svg>
